<?xml version="1.0" encoding="UTF-8"?>
<svg width="200px" height="35px" viewBox="0 0 200 35" version="1.1" xmlns="http://www.w3.org/2000/svg" xmlns:xlink="http://www.w3.org/1999/xlink">
    <!-- Generator: Sketch 44.1 (41455) - http://www.bohemiancoding.com/sketch -->
    <title>Group 4</title>
    <desc>Created with Sketch.</desc>
    <defs></defs>
    <g id="Page-1" stroke="none" stroke-width="1" fill="none" fill-rule="evenodd">
        <g id="Group-4">
            <g id="Group-3">
                <g id="Group-2">
                    <path d="M58.4840881,17.1820303 C58.4840881,18.290554 58.6202205,19.2969616 58.8924895,20.2012835 C59.1647585,21.1056055 59.5585702,21.8737814 60.0739364,22.5058343 C60.5893027,23.1378873 61.2164843,23.6289364 61.9555,23.9789965 C62.6945158,24.3290566 63.5307579,24.504084 64.4642515,24.504084 C65.3782973,24.504084 66.2048156,24.3290566 66.9438314,23.9789965 C67.6828472,23.6289364 68.3100287,23.1378873 68.825395,22.5058343 C69.3407612,21.8737814 69.7345729,21.1056055 70.0068419,20.2012835 C70.2791109,19.2969616 70.4152433,18.290554 70.4152433,17.1820303 C70.4152433,16.0735067 70.2791109,15.067099 70.0068419,14.1627771 C69.7345729,13.2584552 69.3407612,12.4902793 68.825395,11.8582264 C68.3100287,11.2261734 67.6828472,10.7351243 66.9438314,10.3850642 C66.2048156,10.0350041 65.3782973,9.85997666 64.4642515,9.85997666 C63.5307579,9.85997666 62.6945158,10.0350041 61.9555,10.3850642 C61.2164843,10.7351243 60.5893027,11.2310353 60.0739364,11.8728121 C59.5585702,12.514589 59.1647585,13.2827649 58.8924895,14.1773629 C58.6202205,15.0719609 58.4840881,16.0735067 58.4840881,17.1820303 Z M74.2658851,17.1820303 C74.2658851,18.6406141 74.0811339,19.9533197 73.711626,21.1201867 C73.3421182,22.2870537 72.8267596,23.3031851 72.165535,24.1686114 C71.5043104,25.0340378 70.7312726,25.7390093 69.8463985,26.2835473 C68.9615244,26.8280852 67.9940117,27.217035 66.9438314,27.4504084 C67.0021747,27.8588118 67.2063734,28.2088667 67.5564335,28.5005834 C67.9064936,28.7923002 68.348924,29.0353938 68.8837381,29.2298716 C69.4185521,29.4243495 70.0311481,29.5847913 70.7215444,29.7112019 C71.4119406,29.8376125 72.1363597,29.929988 72.8948232,29.9883314 L72.0780204,32.7596266 C69.5692564,32.5651488 67.5758886,32.0838234 66.0978571,31.3156359 C64.6198256,30.5474485 63.6766222,29.3271184 63.2682188,27.6546091 C62.0624563,27.5379224 60.9393636,27.2267625 59.8989072,26.7211202 C58.8584509,26.2154778 57.9492806,25.5250919 57.1713693,24.6499417 C56.393458,23.7747914 55.780862,22.7149032 55.333563,21.470245 C54.886264,20.2255869 54.6626179,18.7961963 54.6626179,17.1820303 C54.6626179,15.4511777 54.925159,13.9294115 55.4502491,12.6166861 C55.9753393,11.3039608 56.6900346,10.2003156 57.5943565,9.30571762 C58.4986784,8.4111196 59.543981,7.74018116 60.7302958,7.29288215 C61.9166106,6.84558314 63.1709738,6.62193699 64.493423,6.62193699 C65.8158722,6.62193699 67.0702354,6.84558314 68.2565502,7.29288215 C69.4428649,7.74018116 70.4784439,8.4111196 71.363318,9.30571762 C72.2481921,10.2003156 72.9531637,11.3039608 73.4782538,12.6166861 C74.0033439,13.9294115 74.2658851,15.4511777 74.2658851,17.1820303 Z M86.0803542,27.7421237 C84.6995616,27.7421237 83.5132646,27.5427869 82.5214277,27.1441074 C81.5295907,26.7454278 80.7079342,26.1863124 80.0564335,25.4667445 C79.4049328,24.7471765 78.9236074,23.9012106 78.6124428,22.9288215 C78.3012783,21.9564323 78.1456984,20.8868203 78.1456984,19.7199533 L78.1456984,7.08868145 L81.8504825,7.08868145 L81.8504825,19.369895 C81.8504825,20.2839408 81.9525818,21.0667023 82.1567836,21.718203 C82.3609853,22.3697038 82.6526976,22.8996479 83.0319294,23.3080513 C83.4111612,23.7164548 83.8584535,24.0178909 84.3738197,24.2123687 C84.889186,24.4068466 85.4677488,24.504084 86.1095257,24.504084 C86.7513025,24.504084 87.3347273,24.4068466 87.8598174,24.2123687 C88.3849075,24.0178909 88.8370617,23.7164548 89.2162935,23.3080513 C89.5955252,22.8996479 89.8872376,22.3697038 90.0914393,21.718203 C90.2956411,21.0667023 90.3977404,20.2839408 90.3977404,19.369895 L90.3977404,7.08868145 L94.1025245,7.08868145 L94.1025245,19.7199533 C94.1025245,20.8868203 93.9420827,21.9564323 93.6211943,22.9288215 C93.3003059,23.9012106 92.8141186,24.7471765 92.1626179,25.4667445 C91.5111171,26.1863124 90.6797369,26.7454278 89.6684522,27.1441074 C88.6571675,27.5427869 87.4611467,27.7421237 86.0803542,27.7421237 Z M98.7991406,7.08868145 L102.474753,7.08868145 L102.474753,27.3045508 L98.7991406,27.3045508 L98.7991406,7.08868145 Z M116.302058,27.7421237 C114.785131,27.7421237 113.423806,27.5087538 112.218044,27.042007 C111.012281,26.5752602 109.991288,25.8897361 109.155033,24.9854142 C108.318779,24.0810923 107.677011,22.9774472 107.229712,21.6744457 C106.782413,20.3714443 106.558767,18.8739875 106.558767,17.1820303 C106.558767,15.4900732 106.816446,13.9926164 107.331813,12.6896149 C107.847179,11.3866135 108.552151,10.2829683 109.446749,9.37864644 C110.341347,8.47432453 111.391511,7.78880047 112.597274,7.32205368 C113.803036,6.85530688 115.096294,6.62193699 116.477087,6.62193699 C117.313342,6.62193699 118.071794,6.68514134 118.752466,6.81155193 C119.433139,6.93796251 120.026287,7.07895683 120.531929,7.23453909 C121.037572,7.39012135 121.455693,7.55542503 121.786305,7.73045508 C122.116917,7.90548512 122.350287,8.03189382 122.486422,8.10968495 L121.407075,11.1143524 C120.940328,10.8226356 120.274252,10.5455089 119.408826,10.2829638 C118.543399,10.0204188 117.605058,9.88914819 116.593773,9.88914819 C115.718623,9.88914819 114.901828,10.0398662 114.143365,10.3413069 C113.384901,10.6427475 112.728548,11.0949017 112.174286,11.697783 C111.620025,12.3006642 111.187318,13.0591164 110.876153,13.9731622 C110.564989,14.887208 110.409409,15.9470963 110.409409,17.1528588 C110.409409,18.2224869 110.530956,19.2045852 110.774053,20.0991832 C111.01715,20.9937812 111.391515,21.766819 111.897157,22.4183197 C112.402799,23.0698204 113.044567,23.5754552 113.822478,23.9352392 C114.600389,24.2950232 115.533869,24.4749125 116.622945,24.4749125 C117.925946,24.4749125 118.985834,24.3436419 119.802641,24.0810968 C120.619448,23.8185518 121.251492,23.5705963 121.698791,23.3372229 L122.690623,26.3418903 C122.457249,26.4974726 122.141227,26.6530525 121.742548,26.8086348 C121.343868,26.964217 120.872267,27.1149351 120.327729,27.2607935 C119.783191,27.4066518 119.170595,27.5233368 118.489922,27.6108518 C117.80925,27.6983668 117.079969,27.7421237 116.302058,27.7421237 Z M138.005675,27.3045508 C137.500033,26.5266394 136.916608,25.7098448 136.255383,24.8541424 C135.594159,23.9984399 134.898911,23.1719215 134.169619,22.3745624 C133.440327,21.5772033 132.686737,20.8187512 131.908826,20.0991832 C131.130914,19.3796152 130.362738,18.7572955 129.604275,18.2322054 L129.604275,27.3045508 L125.928662,27.3045508 L125.928662,7.08868145 L129.604275,7.08868145 L129.604275,15.4317386 C130.246052,14.7899618 130.91699,14.1044377 131.61711,13.3751459 C132.31723,12.645854 133.012478,11.9068493 133.702875,11.1581097 C134.393271,10.40937 135.049624,9.68495099 135.671953,8.98483081 C136.294282,8.28471062 136.858259,7.65266715 137.363901,7.08868145 L141.768802,7.08868145 C141.127025,7.8276972 140.446363,8.5958731 139.726795,9.39323221 C139.007227,10.1905913 138.268223,10.9928003 137.509759,11.7998833 C136.751296,12.6069663 135.987981,13.4091753 135.219794,14.2065344 C134.451607,15.0038935 133.698016,15.7623457 132.959001,16.4819137 C133.775807,17.1042427 134.607188,17.8286618 135.453166,18.6551925 C136.299145,19.4817233 137.130525,20.3665842 137.947332,21.3098016 C138.764139,22.2530191 139.5469,23.2351174 140.29564,24.256126 C141.04438,25.2771346 141.729904,26.293266 142.352233,27.3045508 L138.005675,27.3045508 Z M157.959001,7.08868145 L157.959001,8.80980163 L151.482921,8.80980163 L151.482921,27.3045508 L149.499257,27.3045508 L149.499257,8.80980163 L143.023178,8.80980163 L143.023178,7.08868145 L157.959001,7.08868145 Z M174.586772,13.1563594 C174.586772,14.6732865 174.188098,15.8693072 173.390739,16.7444574 C172.59338,17.6196076 171.543216,18.2516511 170.240214,18.6406068 C170.551379,19.0295624 170.954914,19.5546447 171.450833,20.2158693 C171.946751,20.8770939 172.457248,21.601513 172.982338,22.3891482 C173.507428,23.1767834 174.022786,23.9984399 174.528429,24.8541424 C175.034071,25.7098448 175.461916,26.5266394 175.811976,27.3045508 L173.682455,27.3045508 C173.274051,26.5266394 172.831621,25.7487398 172.35515,24.9708285 C171.878679,24.1929172 171.392492,23.4393269 170.896574,22.710035 C170.400655,21.9807431 169.91933,21.3049428 169.452583,20.6826138 L168.227379,19.0490082 C167.60505,19.1073515 166.98273,19.1365228 166.360401,19.1365228 L163.09319,19.1365228 L163.09319,27.3045508 L161.109526,27.3045508 L161.109526,7.46791132 C161.809646,7.27343349 162.631302,7.13243918 163.57452,7.04492415 C164.517737,6.95740913 165.388013,6.91365228 166.185372,6.91365228 C168.966405,6.91365228 171.061872,7.43873454 172.471836,8.48891482 C173.8818,9.5390951 174.586772,11.0948944 174.586772,13.1563594 Z M166.418744,8.63477246 C165.679728,8.63477246 165.033099,8.65908183 164.478837,8.70770128 C163.924575,8.75632074 163.462698,8.8000776 163.09319,8.83897316 L163.09319,17.4445741 L165.835313,17.4445741 C166.749359,17.4445741 167.614772,17.4008172 168.431579,17.3133022 C169.248386,17.2257872 169.95822,17.0313123 170.561101,16.7298716 C171.163982,16.428431 171.640446,15.9957243 171.990506,15.4317386 C172.340566,14.8677529 172.515593,14.099577 172.515593,13.1271879 C172.515593,12.2325898 172.340566,11.4935852 171.990506,10.9101517 C171.640446,10.3267182 171.18343,9.86484029 170.619444,9.52450408 C170.055458,9.18416788 169.408829,8.95079799 168.679537,8.8243874 C167.950245,8.69797681 167.196655,8.63477246 166.418744,8.63477246 Z M179.13753,7.08868145 L181.121194,7.08868145 L181.121194,27.3045508 L179.13753,27.3045508 L179.13753,7.08868145 Z M191.477087,6.91365228 C194.335911,6.91365228 196.465411,7.45818203 197.865652,8.54725788 C199.265892,9.63633372 199.966002,11.1824093 199.966002,13.1855309 C199.966002,14.3329501 199.761803,15.3101866 199.3534,16.1172695 C198.944996,16.9243525 198.361571,17.5758435 197.603108,18.071762 C196.844644,18.5676804 195.916027,18.927459 194.817227,19.1511085 C193.718427,19.374758 192.47865,19.4865811 191.097857,19.4865811 L188.355733,19.4865811 L188.355733,27.3045508 L186.372069,27.3045508 L186.372069,7.46791132 C187.07219,7.27343349 187.893846,7.13243918 188.837064,7.04492415 C189.780281,6.95740913 190.66028,6.91365228 191.477087,6.91365228 Z M191.564602,8.63477246 C190.825586,8.63477246 190.198404,8.65908183 189.683038,8.70770128 C189.167672,8.75632074 188.725241,8.8000776 188.355733,8.83897316 L188.355733,17.7654609 L190.864485,17.7654609 C191.934113,17.7654609 192.901626,17.7022566 193.767052,17.575846 C194.632478,17.4494354 195.371483,17.2160655 195.984088,16.8757293 C196.596693,16.5353931 197.068295,16.0637914 197.398907,15.4609102 C197.72952,14.8580289 197.894823,14.089853 197.894823,13.1563594 C197.894823,12.2617614 197.714934,11.5227567 197.35515,10.9393232 C196.995366,10.3558897 196.518902,9.89401181 195.925745,9.55367561 C195.332588,9.21333941 194.656787,8.97510764 193.898324,8.83897316 C193.13986,8.70283868 192.361961,8.63477246 191.564602,8.63477246 Z" id="QUICKTRIP" fill="#272825"></path>
                    <g id="Group" transform="translate(25.368081, 17.355353) scale(-1, 1) translate(-25.368081, -17.355353) translate(0.000000, 0.114346)">
                        <polyline id="Fill-23" fill="#FFFFFF" points="0.54656646 5.12822004 2.10168379 3.15882681 9.85904412 3.95543971 9.03513571 7.79215157 6.29883474 8.47787345 1.62172382 7.12347478"></polyline>
                        <path d="M0.77743328,5.31023022 L2.23220782,3.46779349 L9.50294479,4.21425074 L8.78623854,7.55156116 L6.30432224,8.17360886 L1.70344833,6.84134921 C1.54744664,6.79609157 1.3843896,6.88582317 1.33931373,7.04177592 C1.29404189,7.19772867 1.38399763,7.36073455 1.53980334,7.40579628 L6.21691426,8.76019495 C6.26630173,8.77449714 6.32039276,8.77547675 6.37036818,8.76293783 L9.10666915,8.07721596 C9.21583113,8.049983 9.29892751,7.96377796 9.32264133,7.85386654 L10.1465497,4.01715468 C10.1641881,3.93506397 10.1463538,3.85062222 10.0969663,3.7826378 C10.0475788,3.71465337 9.9727137,3.67155085 9.88922536,3.66312627 L2.13166904,2.86651337 C2.03191419,2.8563255 1.93294327,2.89805657 1.87081697,2.97681663 L0.315895622,4.94620986 C0.215356845,5.07355821 0.237110849,5.25831128 0.364499163,5.35901443 C0.491887476,5.45952167 0.676698521,5.43777449 0.77743328,5.31042614" id="Fill-24" fill="#262725"></path>
                        <polyline id="Fill-25" fill="#FFFFFF" points="0.80075514 25.1505152 0.320207226 30.8825623 19.4621631 32.2822186 34.0377379 34.1769661 50.3293313 30.5189338 50.3736233 26.383639 49.3821502 24.2821954"></polyline>
                        <path d="M0.507958002,25.1260251 L0.0272141055,30.8580722 C0.0207466988,30.9362445 0.0456364154,31.0138291 0.0965917407,31.0733889 C0.147743048,31.1331447 0.220452378,31.1697818 0.298649204,31.1756594 L19.4325698,32.574728 L33.9999134,34.4683 C34.0344063,34.4728061 34.0681152,34.4712388 34.102216,34.4635979 L50.3938094,30.8057615 C50.5272732,30.7757856 50.6219325,30.6588211 50.6233044,30.5220685 L50.6675963,26.3867738 C50.6679883,26.341908 50.6585811,26.2986095 50.6395709,26.2582499 L49.6480978,24.1568062 C49.5787202,24.0100617 49.4035123,23.9471712 49.2567217,24.0163312 C49.1099312,24.0856871 49.047021,24.26084 49.1162026,24.4075845 L50.0788663,26.447901 L50.0379061,30.2832414 L34.0240192,33.8787751 L19.5001836,31.9908848 L19.4837211,31.9891215 L0.637894081,30.6110165 L1.09374826,25.1750052 C1.10727102,25.0133708 0.987134042,24.8711325 0.825448875,24.857614 C0.663567726,24.8440955 0.521480761,24.9641948 0.507958002,25.1260251" id="Fill-26" fill="#262725"></path>
                        <polyline id="Fill-27" fill="#262725" points="0.416238416 5.17680833 1.1053112 16.0535328 0.446027683 25.6787169 8.42190797 27.5476029 18.8742171 27.5476029 38.0804551 29.1149672 49.8393763 24.2821954 45.2547689 22.5841521 40.4322393 21.8984302 29.1632731 16.1187744 22.3039024 10.0452377 13.9746666 0.0532903859 8.29118796 4.46150246 7.80123291 6.71458862 2.9016824 6.61662836 0.416238416 5.17680833"></polyline>
                        <path d="M0.704919932,28.7967923 L16.6327707,30.1909628 L32.8224534,31.9571865 C32.9839426,31.9748193 33.1289693,31.8582466 33.1466077,31.697004 C33.1642461,31.5355655 33.0476368,31.3905843 32.8863436,31.3729514 L16.6937211,29.6063359 L16.6874497,29.6057482 L0.756071239,28.2113817 C0.594386073,28.1972754 0.451711162,28.316787 0.437600456,28.4784214 C0.423489751,28.6402518 0.543038783,28.782686 0.704919932,28.7967923" id="Fill-28" fill="#262725"></path>
                        <path d="M33.6763471,29.0689259 L33.088401,31.5014753 C33.0817377,31.529296 33.0813457,31.5594678 33.0870292,31.5874844 L33.4858526,33.506722 C33.5078026,33.612715 33.6114771,33.6806994 33.7175033,33.6587563 C33.8235296,33.6368132 33.8915354,33.5329753 33.8695854,33.4269823 L33.4797771,31.5508473 L34.0573361,29.1608126 C34.0828138,29.0557992 34.0181397,28.9498062 33.9128974,28.9245325 C33.8076551,28.8990628 33.7018248,28.9637166 33.6763471,29.0689259" id="Fill-29" fill="#262725"></path>
                        <path d="M9.82513923,4.91270745 L12.5467416,5.9168002 L24.8775383,19.31992 L24.9208503,19.347153 L35.6634088,22.6664387 L38.5184749,27.5642562 C38.5457164,27.6108853 38.6056869,27.6267548 38.6525266,27.5995219 C38.6991703,27.5722889 38.7150448,27.5123372 38.6878033,27.4655122 L35.8133351,22.534976 C35.8009882,22.5136207 35.781194,22.497947 35.7576762,22.490698 L25.0039467,19.1676898 L12.6749138,5.76672507 L12.6368933,5.74105948 L9.893145,4.72873807 C9.84218967,4.71012562 9.78594283,4.73598713 9.76712856,4.78673055 C9.74851026,4.83766989 9.77437989,4.89389908 9.82513923,4.91270745" id="Fill-30" fill="#FFFFFF"></path>
                        <polyline id="Fill-31" fill="#FFFFFF" points="41.3445356 22.7122841 38.9951032 24.869957 38.9951032 27.5148842 47.6835741 24.07354 44.3518797 22.9107516 41.3445356 22.7122841"></polyline>
                        <polyline id="Fill-32" fill="#FFFFFF" points="33.8797764 25.3540766 37.6708526 21.2897051 36.3209285 20.6800004 32.5929585 24.6013499 33.8797764 25.3540766"></polyline>
                        <polyline id="Fill-33" fill="#FFFFFF" points="30.6786061 23.9173913 35.1319056 19.9719436 33.2747799 19.3980923 29.3919842 23.1646646 30.6786061 23.9173913"></polyline>
                        <polyline id="Fill-34" fill="#FFFFFF" points="26.9077161 21.9342837 30.9012417 18.0221424 29.4889953 17.0617399 25.7233967 21.0289349 26.9077161 21.9342837"></polyline>
                        <polyline id="Fill-35" fill="#FFFFFF" points="23.5450566 19.4980118 27.5387782 15.5858705 26.1263357 14.625468 22.3607372 18.5928589 23.5450566 19.4980118"></polyline>
                        <polyline id="Fill-36" fill="#FFFFFF" points="20.237468 17.0617399 24.2311896 13.1495986 22.8187472 12.1891962 19.0533446 16.156587 20.237468 17.0617399"></polyline>
                        <polyline id="Fill-37" fill="#FFFFFF" points="17.1164543 13.6586002 21.9209536 10.7995318 20.7752427 9.53290554 16.1792683 12.4995343 17.1164543 13.6586002"></polyline>
                        <polyline id="Fill-38" fill="#FFFFFF" points="14.5686881 11.2491694 19.3731873 8.39010105 18.2274764 7.12347478 13.631502 10.0901035 14.5686881 11.2491694"></polyline>
                        <polyline id="Fill-39" fill="#FFFFFF" points="10.4640406 7.9602514 12.3491917 7.77295136 13.0455158 19.4020107 12.5579125 19.450599 12.389564 17.7560823 11.3585026 16.9602531 10.4640406 7.9602514"></polyline>
                        <polyline id="Fill-40" fill="#FFFFFF" points="3.13039342 17.8458139 6.26610574 14.4460048 9.46708008 17.4616137 6.46208776 21.2454271 3.13039342 17.8458139"></polyline>
                    </g>
                </g>
            </g>
        </g>
    </g>
</svg>